<svg xmlns="http://www.w3.org/2000/svg" version="1.1" xmlns:xlink="http://www.w3.org/1999/xlink" xmlns:svgjs="http://svgjs.com/svgjs" width="1440" height="560" preserveAspectRatio="none" viewBox="0 0 1440 560"><g mask="url(&quot;#SvgjsMask1010&quot;)" fill="none"><rect width="1440" height="560" x="0" y="0" fill="rgba(67, 28, 33, 1)"></rect><path d="M-90.31 401.5L-90.31 401.5" stroke="rgba(114, 47, 55, 1)" stroke-width="1.5"></path><path d="M-90.31 401.5L-39.97 487.61" stroke="rgba(114, 47, 55, 1)" stroke-width="1.5"></path><path d="M-90.31 401.5L84.8 350.18" stroke="rgba(114, 47, 55, 1)" stroke-width="1.5"></path><path d="M-90.31 401.5L96.55 494.34" stroke="rgba(114, 47, 55, 1)" stroke-width="1.5"></path><path d="M-90.31 401.5L-53.89 664.58" stroke="rgba(114, 47, 55, 1)" stroke-width="1.5"></path><path d="M-90.31 401.5L189.44 337.88" stroke="rgba(114, 47, 55, 1)" stroke-width="1.5"></path><path d="M-90.31 401.5L221.63 505.71" stroke="rgba(114, 47, 55, 1)" stroke-width="1.5"></path><path d="M-39.97 487.61L-39.97 487.61" stroke="rgba(114, 47, 55, 1)" stroke-width="1.5"></path><path d="M-53.89 664.58L-53.89 664.58" stroke="rgba(114, 47, 55, 1)" stroke-width="1.5"></path><path d="M-53.89 664.58L79.47 696.18" stroke="rgba(114, 47, 55, 1)" stroke-width="1.5"></path><path d="M-53.89 664.58L-39.97 487.61" stroke="rgba(114, 47, 55, 1)" stroke-width="1.5"></path><path d="M-53.89 664.58L96.55 494.34" stroke="rgba(114, 47, 55, 1)" stroke-width="1.5"></path><path d="M-53.89 664.58L216.14 697.2" stroke="rgba(114, 47, 55, 1)" stroke-width="1.5"></path><path d="M-53.89 664.58L221.63 505.71" stroke="rgba(114, 47, 55, 1)" stroke-width="1.5"></path><path d="M84.8 350.18L84.8 350.18" stroke="rgba(114, 47, 55, 1)" stroke-width="1.5"></path><path d="M84.8 350.18L189.44 337.88" stroke="rgba(114, 47, 55, 1)" stroke-width="1.5"></path><path d="M84.8 350.18L96.55 494.34" stroke="rgba(114, 47, 55, 1)" stroke-width="1.5"></path><path d="M84.8 350.18L-39.97 487.61" stroke="rgba(114, 47, 55, 1)" stroke-width="1.5"></path><path d="M84.8 350.18L221.63 505.71" stroke="rgba(114, 47, 55, 1)" stroke-width="1.5"></path><path d="M84.8 350.18L386.43 409.16" stroke="rgba(114, 47, 55, 1)" stroke-width="1.5"></path><path d="M96.55 494.34L96.55 494.34" stroke="rgba(114, 47, 55, 1)" stroke-width="1.5"></path><path d="M96.55 494.34L221.63 505.71" stroke="rgba(114, 47, 55, 1)" stroke-width="1.5"></path><path d="M96.55 494.34L-39.97 487.61" stroke="rgba(114, 47, 55, 1)" stroke-width="1.5"></path><path d="M96.55 494.34L189.44 337.88" stroke="rgba(114, 47, 55, 1)" stroke-width="1.5"></path><path d="M96.55 494.34L79.47 696.18" stroke="rgba(114, 47, 55, 1)" stroke-width="1.5"></path><path d="M79.47 696.18L79.47 696.18" stroke="rgba(114, 47, 55, 1)" stroke-width="1.5"></path><path d="M79.47 696.18L216.14 697.2" stroke="rgba(114, 47, 55, 1)" stroke-width="1.5"></path><path d="M79.47 696.18L221.63 505.71" stroke="rgba(114, 47, 55, 1)" stroke-width="1.5"></path><path d="M79.47 696.18L-39.97 487.61" stroke="rgba(114, 47, 55, 1)" stroke-width="1.5"></path><path d="M79.47 696.18L407.49 666.63" stroke="rgba(114, 47, 55, 1)" stroke-width="1.5"></path><path d="M189.44 337.88L189.44 337.88" stroke="rgba(114, 47, 55, 1)" stroke-width="1.5"></path><path d="M189.44 337.88L221.63 505.71" stroke="rgba(114, 47, 55, 1)" stroke-width="1.5"></path><path d="M189.44 337.88L386.43 409.16" stroke="rgba(114, 47, 55, 1)" stroke-width="1.5"></path><path d="M221.63 505.71L221.63 505.71" stroke="rgba(114, 47, 55, 1)" stroke-width="1.5"></path><path d="M221.63 505.71L357.92 507.89" stroke="rgba(114, 47, 55, 1)" stroke-width="1.5"></path><path d="M216.14 697.2L216.14 697.2" stroke="rgba(114, 47, 55, 1)" stroke-width="1.5"></path><path d="M216.14 697.2L221.63 505.71" stroke="rgba(114, 47, 55, 1)" stroke-width="1.5"></path><path d="M216.14 697.2L407.49 666.63" stroke="rgba(114, 47, 55, 1)" stroke-width="1.5"></path><path d="M216.14 697.2L96.55 494.34" stroke="rgba(114, 47, 55, 1)" stroke-width="1.5"></path><path d="M386.43 409.16L386.43 409.16" stroke="rgba(114, 47, 55, 1)" stroke-width="1.5"></path><path d="M386.43 409.16L357.92 507.89" stroke="rgba(114, 47, 55, 1)" stroke-width="1.5"></path><path d="M386.43 409.16L542.91 410.82" stroke="rgba(114, 47, 55, 1)" stroke-width="1.5"></path><path d="M386.43 409.16L512.79 529.21" stroke="rgba(114, 47, 55, 1)" stroke-width="1.5"></path><path d="M357.92 507.89L357.92 507.89" stroke="rgba(114, 47, 55, 1)" stroke-width="1.5"></path><path d="M357.92 507.89L512.79 529.21" stroke="rgba(114, 47, 55, 1)" stroke-width="1.5"></path><path d="M357.92 507.89L407.49 666.63" stroke="rgba(114, 47, 55, 1)" stroke-width="1.5"></path><path d="M357.92 507.89L542.91 410.82" stroke="rgba(114, 47, 55, 1)" stroke-width="1.5"></path><path d="M357.92 507.89L216.14 697.2" stroke="rgba(114, 47, 55, 1)" stroke-width="1.5"></path><path d="M407.49 666.63L407.49 666.63" stroke="rgba(114, 47, 55, 1)" stroke-width="1.5"></path><path d="M407.49 666.63L511.01 706.7" stroke="rgba(114, 47, 55, 1)" stroke-width="1.5"></path><path d="M407.49 666.63L512.79 529.21" stroke="rgba(114, 47, 55, 1)" stroke-width="1.5"></path><path d="M542.91 410.82L542.91 410.82" stroke="rgba(114, 47, 55, 1)" stroke-width="1.5"></path><path d="M542.91 410.82L512.79 529.21" stroke="rgba(114, 47, 55, 1)" stroke-width="1.5"></path><path d="M542.91 410.82L691.79 372.4" stroke="rgba(114, 47, 55, 1)" stroke-width="1.5"></path><path d="M542.91 410.82L694.26 520.88" stroke="rgba(114, 47, 55, 1)" stroke-width="1.5"></path><path d="M542.91 410.82L797.19 535.76" stroke="rgba(114, 47, 55, 1)" stroke-width="1.5"></path><path d="M512.79 529.21L512.79 529.21" stroke="rgba(114, 47, 55, 1)" stroke-width="1.5"></path><path d="M512.79 529.21L511.01 706.7" stroke="rgba(114, 47, 55, 1)" stroke-width="1.5"></path><path d="M512.79 529.21L694.26 520.88" stroke="rgba(114, 47, 55, 1)" stroke-width="1.5"></path><path d="M511.01 706.7L511.01 706.7" stroke="rgba(114, 47, 55, 1)" stroke-width="1.5"></path><path d="M511.01 706.7L703.82 709.1" stroke="rgba(114, 47, 55, 1)" stroke-width="1.5"></path><path d="M511.01 706.7L357.92 507.89" stroke="rgba(114, 47, 55, 1)" stroke-width="1.5"></path><path d="M691.79 372.4L691.79 372.4" stroke="rgba(114, 47, 55, 1)" stroke-width="1.5"></path><path d="M691.79 372.4L831.89 394.21" stroke="rgba(114, 47, 55, 1)" stroke-width="1.5"></path><path d="M691.79 372.4L694.26 520.88" stroke="rgba(114, 47, 55, 1)" stroke-width="1.5"></path><path d="M691.79 372.4L797.19 535.76" stroke="rgba(114, 47, 55, 1)" stroke-width="1.5"></path><path d="M694.26 520.88L694.26 520.88" stroke="rgba(114, 47, 55, 1)" stroke-width="1.5"></path><path d="M694.26 520.88L797.19 535.76" stroke="rgba(114, 47, 55, 1)" stroke-width="1.5"></path><path d="M694.26 520.88L831.89 394.21" stroke="rgba(114, 47, 55, 1)" stroke-width="1.5"></path><path d="M694.26 520.88L703.82 709.1" stroke="rgba(114, 47, 55, 1)" stroke-width="1.5"></path><path d="M703.82 709.1L703.82 709.1" stroke="rgba(114, 47, 55, 1)" stroke-width="1.5"></path><path d="M703.82 709.1L821.77 662.64" stroke="rgba(114, 47, 55, 1)" stroke-width="1.5"></path><path d="M703.82 709.1L797.19 535.76" stroke="rgba(114, 47, 55, 1)" stroke-width="1.5"></path><path d="M854.34 109.45L854.34 109.45" stroke="rgba(114, 47, 55, 1)" stroke-width="1.5"></path><path d="M854.34 109.45L861.37 215.13" stroke="rgba(114, 47, 55, 1)" stroke-width="1.5"></path><path d="M854.34 109.45L969.33 79.77" stroke="rgba(114, 47, 55, 1)" stroke-width="1.5"></path><path d="M854.34 109.45L995.49 233.04" stroke="rgba(114, 47, 55, 1)" stroke-width="1.5"></path><path d="M861.37 215.13L861.37 215.13" stroke="rgba(114, 47, 55, 1)" stroke-width="1.5"></path><path d="M861.37 215.13L995.49 233.04" stroke="rgba(114, 47, 55, 1)" stroke-width="1.5"></path><path d="M861.37 215.13L957.09 341.06" stroke="rgba(114, 47, 55, 1)" stroke-width="1.5"></path><path d="M861.37 215.13L969.33 79.77" stroke="rgba(114, 47, 55, 1)" stroke-width="1.5"></path><path d="M861.37 215.13L831.89 394.21" stroke="rgba(114, 47, 55, 1)" stroke-width="1.5"></path><path d="M861.37 215.13L691.79 372.4" stroke="rgba(114, 47, 55, 1)" stroke-width="1.5"></path><path d="M831.89 394.21L831.89 394.21" stroke="rgba(114, 47, 55, 1)" stroke-width="1.5"></path><path d="M831.89 394.21L957.09 341.06" stroke="rgba(114, 47, 55, 1)" stroke-width="1.5"></path><path d="M831.89 394.21L797.19 535.76" stroke="rgba(114, 47, 55, 1)" stroke-width="1.5"></path><path d="M831.89 394.21L995.49 233.04" stroke="rgba(114, 47, 55, 1)" stroke-width="1.5"></path><path d="M797.19 535.76L797.19 535.76" stroke="rgba(114, 47, 55, 1)" stroke-width="1.5"></path><path d="M797.19 535.76L821.77 662.64" stroke="rgba(114, 47, 55, 1)" stroke-width="1.5"></path><path d="M797.19 535.76L942.18 666.18" stroke="rgba(114, 47, 55, 1)" stroke-width="1.5"></path><path d="M821.77 662.64L821.77 662.64" stroke="rgba(114, 47, 55, 1)" stroke-width="1.5"></path><path d="M821.77 662.64L942.18 666.18" stroke="rgba(114, 47, 55, 1)" stroke-width="1.5"></path><path d="M973.21 -59.19L973.21 -59.19" stroke="rgba(114, 47, 55, 1)" stroke-width="1.5"></path><path d="M973.21 -59.19L969.33 79.77" stroke="rgba(114, 47, 55, 1)" stroke-width="1.5"></path><path d="M973.21 -59.19L1143.79 -90.23" stroke="rgba(114, 47, 55, 1)" stroke-width="1.5"></path><path d="M969.33 79.77L969.33 79.77" stroke="rgba(114, 47, 55, 1)" stroke-width="1.5"></path><path d="M969.33 79.77L1120.67 48.2" stroke="rgba(114, 47, 55, 1)" stroke-width="1.5"></path><path d="M969.33 79.77L995.49 233.04" stroke="rgba(114, 47, 55, 1)" stroke-width="1.5"></path><path d="M995.49 233.04L995.49 233.04" stroke="rgba(114, 47, 55, 1)" stroke-width="1.5"></path><path d="M995.49 233.04L957.09 341.06" stroke="rgba(114, 47, 55, 1)" stroke-width="1.5"></path><path d="M995.49 233.04L1117.55 243.41" stroke="rgba(114, 47, 55, 1)" stroke-width="1.5"></path><path d="M995.49 233.04L1146 377.51" stroke="rgba(114, 47, 55, 1)" stroke-width="1.5"></path><path d="M957.09 341.06L957.09 341.06" stroke="rgba(114, 47, 55, 1)" stroke-width="1.5"></path><path d="M942.18 666.18L942.18 666.18" stroke="rgba(114, 47, 55, 1)" stroke-width="1.5"></path><path d="M942.18 666.18L1134.36 688.78" stroke="rgba(114, 47, 55, 1)" stroke-width="1.5"></path><path d="M942.18 666.18L703.82 709.1" stroke="rgba(114, 47, 55, 1)" stroke-width="1.5"></path><path d="M942.18 666.18L1146.47 499.53" stroke="rgba(114, 47, 55, 1)" stroke-width="1.5"></path><path d="M1143.79 -90.23L1143.79 -90.23" stroke="rgba(114, 47, 55, 1)" stroke-width="1.5"></path><path d="M1143.79 -90.23L1268.19 -89.3" stroke="rgba(114, 47, 55, 1)" stroke-width="1.5"></path><path d="M1143.79 -90.23L1120.67 48.2" stroke="rgba(114, 47, 55, 1)" stroke-width="1.5"></path><path d="M1143.79 -90.23L1301.29 72.9" stroke="rgba(114, 47, 55, 1)" stroke-width="1.5"></path><path d="M1143.79 -90.23L969.33 79.77" stroke="rgba(114, 47, 55, 1)" stroke-width="1.5"></path><path d="M1120.67 48.2L1120.67 48.2" stroke="rgba(114, 47, 55, 1)" stroke-width="1.5"></path><path d="M1117.55 243.41L1117.55 243.41" stroke="rgba(114, 47, 55, 1)" stroke-width="1.5"></path><path d="M1117.55 243.41L1146 377.51" stroke="rgba(114, 47, 55, 1)" stroke-width="1.5"></path><path d="M1117.55 243.41L957.09 341.06" stroke="rgba(114, 47, 55, 1)" stroke-width="1.5"></path><path d="M1146 377.51L1146 377.51" stroke="rgba(114, 47, 55, 1)" stroke-width="1.5"></path><path d="M1146 377.51L1146.47 499.53" stroke="rgba(114, 47, 55, 1)" stroke-width="1.5"></path><path d="M1146 377.51L1296.94 394.56" stroke="rgba(114, 47, 55, 1)" stroke-width="1.5"></path><path d="M1146.47 499.53L1146.47 499.53" stroke="rgba(114, 47, 55, 1)" stroke-width="1.5"></path><path d="M1146.47 499.53L1240.12 552.37" stroke="rgba(114, 47, 55, 1)" stroke-width="1.5"></path><path d="M1146.47 499.53L1296.94 394.56" stroke="rgba(114, 47, 55, 1)" stroke-width="1.5"></path><path d="M1134.36 688.78L1134.36 688.78" stroke="rgba(114, 47, 55, 1)" stroke-width="1.5"></path><path d="M1134.36 688.78L1299.99 677.26" stroke="rgba(114, 47, 55, 1)" stroke-width="1.5"></path><path d="M1134.36 688.78L1240.12 552.37" stroke="rgba(114, 47, 55, 1)" stroke-width="1.5"></path><path d="M1134.36 688.78L1146.47 499.53" stroke="rgba(114, 47, 55, 1)" stroke-width="1.5"></path><path d="M1268.19 -89.3L1268.19 -89.3" stroke="rgba(114, 47, 55, 1)" stroke-width="1.5"></path><path d="M1268.19 -89.3L1416.44 -84.07" stroke="rgba(114, 47, 55, 1)" stroke-width="1.5"></path><path d="M1268.19 -89.3L1301.29 72.9" stroke="rgba(114, 47, 55, 1)" stroke-width="1.5"></path><path d="M1268.19 -89.3L1120.67 48.2" stroke="rgba(114, 47, 55, 1)" stroke-width="1.5"></path><path d="M1268.19 -89.3L1449.07 48.83" stroke="rgba(114, 47, 55, 1)" stroke-width="1.5"></path><path d="M1268.19 -89.3L973.21 -59.19" stroke="rgba(114, 47, 55, 1)" stroke-width="1.5"></path><path d="M1301.29 72.9L1301.29 72.9" stroke="rgba(114, 47, 55, 1)" stroke-width="1.5"></path><path d="M1301.29 72.9L1449.07 48.83" stroke="rgba(114, 47, 55, 1)" stroke-width="1.5"></path><path d="M1301.29 72.9L1120.67 48.2" stroke="rgba(114, 47, 55, 1)" stroke-width="1.5"></path><path d="M1301.29 72.9L1449.36 191.32" stroke="rgba(114, 47, 55, 1)" stroke-width="1.5"></path><path d="M1296.94 394.56L1296.94 394.56" stroke="rgba(114, 47, 55, 1)" stroke-width="1.5"></path><path d="M1296.94 394.56L1412.34 362.94" stroke="rgba(114, 47, 55, 1)" stroke-width="1.5"></path><path d="M1240.12 552.37L1240.12 552.37" stroke="rgba(114, 47, 55, 1)" stroke-width="1.5"></path><path d="M1240.12 552.37L1299.99 677.26" stroke="rgba(114, 47, 55, 1)" stroke-width="1.5"></path><path d="M1240.12 552.37L1296.94 394.56" stroke="rgba(114, 47, 55, 1)" stroke-width="1.5"></path><path d="M1240.12 552.37L1146 377.51" stroke="rgba(114, 47, 55, 1)" stroke-width="1.5"></path><path d="M1299.99 677.26L1299.99 677.26" stroke="rgba(114, 47, 55, 1)" stroke-width="1.5"></path><path d="M1299.99 677.26L1396.31 692.62" stroke="rgba(114, 47, 55, 1)" stroke-width="1.5"></path><path d="M1299.99 677.26L1442.94 548.94" stroke="rgba(114, 47, 55, 1)" stroke-width="1.5"></path><path d="M1299.99 677.26L1146.47 499.53" stroke="rgba(114, 47, 55, 1)" stroke-width="1.5"></path><path d="M1299.99 677.26L1580.24 676.68" stroke="rgba(114, 47, 55, 1)" stroke-width="1.5"></path><path d="M1416.44 -84.07L1416.44 -84.07" stroke="rgba(114, 47, 55, 1)" stroke-width="1.5"></path><path d="M1416.44 -84.07L1449.07 48.83" stroke="rgba(114, 47, 55, 1)" stroke-width="1.5"></path><path d="M1416.44 -84.07L1608.93 -98.34" stroke="rgba(114, 47, 55, 1)" stroke-width="1.5"></path><path d="M1416.44 -84.07L1301.29 72.9" stroke="rgba(114, 47, 55, 1)" stroke-width="1.5"></path><path d="M1449.07 48.83L1449.07 48.83" stroke="rgba(114, 47, 55, 1)" stroke-width="1.5"></path><path d="M1449.07 48.83L1449.36 191.32" stroke="rgba(114, 47, 55, 1)" stroke-width="1.5"></path><path d="M1449.36 191.32L1449.36 191.32" stroke="rgba(114, 47, 55, 1)" stroke-width="1.5"></path><path d="M1449.36 191.32L1591.59 205.02" stroke="rgba(114, 47, 55, 1)" stroke-width="1.5"></path><path d="M1449.36 191.32L1412.34 362.94" stroke="rgba(114, 47, 55, 1)" stroke-width="1.5"></path><path d="M1449.36 191.32L1607.25 44.56" stroke="rgba(114, 47, 55, 1)" stroke-width="1.5"></path><path d="M1449.36 191.32L1542.9 402.04" stroke="rgba(114, 47, 55, 1)" stroke-width="1.5"></path><path d="M1412.34 362.94L1412.34 362.94" stroke="rgba(114, 47, 55, 1)" stroke-width="1.5"></path><path d="M1412.34 362.94L1542.9 402.04" stroke="rgba(114, 47, 55, 1)" stroke-width="1.5"></path><path d="M1412.34 362.94L1442.94 548.94" stroke="rgba(114, 47, 55, 1)" stroke-width="1.5"></path><path d="M1442.94 548.94L1442.94 548.94" stroke="rgba(114, 47, 55, 1)" stroke-width="1.5"></path><path d="M1442.94 548.94L1396.31 692.62" stroke="rgba(114, 47, 55, 1)" stroke-width="1.5"></path><path d="M1442.94 548.94L1606.13 545.11" stroke="rgba(114, 47, 55, 1)" stroke-width="1.5"></path><path d="M1442.94 548.94L1542.9 402.04" stroke="rgba(114, 47, 55, 1)" stroke-width="1.5"></path><path d="M1442.94 548.94L1580.24 676.68" stroke="rgba(114, 47, 55, 1)" stroke-width="1.5"></path><path d="M1396.31 692.62L1396.31 692.62" stroke="rgba(114, 47, 55, 1)" stroke-width="1.5"></path><path d="M1396.31 692.62L1580.24 676.68" stroke="rgba(114, 47, 55, 1)" stroke-width="1.5"></path><path d="M1608.93 -98.34L1608.93 -98.34" stroke="rgba(114, 47, 55, 1)" stroke-width="1.5"></path><path d="M1608.93 -98.34L1607.25 44.56" stroke="rgba(114, 47, 55, 1)" stroke-width="1.5"></path><path d="M1608.93 -98.34L1449.07 48.83" stroke="rgba(114, 47, 55, 1)" stroke-width="1.5"></path><path d="M1608.93 -98.34L1591.59 205.02" stroke="rgba(114, 47, 55, 1)" stroke-width="1.5"></path><path d="M1608.93 -98.34L1449.36 191.32" stroke="rgba(114, 47, 55, 1)" stroke-width="1.5"></path><path d="M1607.25 44.56L1607.25 44.56" stroke="rgba(114, 47, 55, 1)" stroke-width="1.5"></path><path d="M1607.25 44.56L1449.07 48.83" stroke="rgba(114, 47, 55, 1)" stroke-width="1.5"></path><path d="M1607.25 44.56L1591.59 205.02" stroke="rgba(114, 47, 55, 1)" stroke-width="1.5"></path><path d="M1591.59 205.02L1591.59 205.02" stroke="rgba(114, 47, 55, 1)" stroke-width="1.5"></path><path d="M1591.59 205.02L1542.9 402.04" stroke="rgba(114, 47, 55, 1)" stroke-width="1.5"></path><path d="M1542.9 402.04L1542.9 402.04" stroke="rgba(114, 47, 55, 1)" stroke-width="1.5"></path><path d="M1542.9 402.04L1606.13 545.11" stroke="rgba(114, 47, 55, 1)" stroke-width="1.5"></path><path d="M1606.13 545.11L1606.13 545.11" stroke="rgba(114, 47, 55, 1)" stroke-width="1.5"></path><path d="M1606.13 545.11L1580.24 676.68" stroke="rgba(114, 47, 55, 1)" stroke-width="1.5"></path><path d="M1606.13 545.11L1396.31 692.62" stroke="rgba(114, 47, 55, 1)" stroke-width="1.5"></path><path d="M1606.13 545.11L1412.34 362.94" stroke="rgba(114, 47, 55, 1)" stroke-width="1.5"></path><path d="M1606.13 545.11L1299.99 677.26" stroke="rgba(114, 47, 55, 1)" stroke-width="1.5"></path><path d="M1580.24 676.68L1580.24 676.68" stroke="rgba(114, 47, 55, 1)" stroke-width="1.5"></path><path d="M1580.24 676.68L1542.9 402.04" stroke="rgba(114, 47, 55, 1)" stroke-width="1.5"></path><circle r="5" cx="-90.31" cy="401.5" fill="rgba(114, 47, 55, 1)"></circle><circle r="5" cx="-39.97" cy="487.61" fill="rgba(114, 47, 55, 1)"></circle><circle r="5" cx="-53.89" cy="664.58" fill="rgba(114, 47, 55, 1)"></circle><circle r="5" cx="84.8" cy="350.18" fill="rgba(114, 47, 55, 1)"></circle><circle r="5" cx="96.55" cy="494.34" fill="rgba(114, 47, 55, 1)"></circle><circle r="5" cx="79.47" cy="696.18" fill="rgba(114, 47, 55, 1)"></circle><circle r="5" cx="189.44" cy="337.88" fill="rgba(114, 47, 55, 1)"></circle><circle r="5" cx="221.63" cy="505.71" fill="rgba(114, 47, 55, 1)"></circle><circle r="5" cx="216.14" cy="697.2" fill="rgba(114, 47, 55, 1)"></circle><circle r="5" cx="386.43" cy="409.16" fill="rgba(114, 47, 55, 1)"></circle><circle r="5" cx="357.92" cy="507.89" fill="rgba(114, 47, 55, 1)"></circle><circle r="5" cx="407.49" cy="666.63" fill="rgba(114, 47, 55, 1)"></circle><circle r="5" cx="542.91" cy="410.82" fill="rgba(114, 47, 55, 1)"></circle><circle r="5" cx="512.79" cy="529.21" fill="rgba(114, 47, 55, 1)"></circle><circle r="5" cx="511.01" cy="706.7" fill="rgba(114, 47, 55, 1)"></circle><circle r="5" cx="691.79" cy="372.4" fill="rgba(114, 47, 55, 1)"></circle><circle r="5" cx="694.26" cy="520.88" fill="rgba(114, 47, 55, 1)"></circle><circle r="5" cx="703.82" cy="709.1" fill="rgba(114, 47, 55, 1)"></circle><circle r="5" cx="854.34" cy="109.45" fill="rgba(114, 47, 55, 1)"></circle><circle r="5" cx="861.37" cy="215.13" fill="rgba(114, 47, 55, 1)"></circle><circle r="5" cx="831.89" cy="394.21" fill="rgba(114, 47, 55, 1)"></circle><circle r="5" cx="797.19" cy="535.76" fill="rgba(114, 47, 55, 1)"></circle><circle r="5" cx="821.77" cy="662.64" fill="rgba(114, 47, 55, 1)"></circle><circle r="5" cx="973.21" cy="-59.19" fill="rgba(114, 47, 55, 1)"></circle><circle r="5" cx="969.33" cy="79.77" fill="rgba(114, 47, 55, 1)"></circle><circle r="5" cx="995.49" cy="233.04" fill="rgba(114, 47, 55, 1)"></circle><circle r="5" cx="957.09" cy="341.06" fill="rgba(114, 47, 55, 1)"></circle><circle r="5" cx="942.18" cy="666.18" fill="rgba(114, 47, 55, 1)"></circle><circle r="5" cx="1143.79" cy="-90.23" fill="rgba(114, 47, 55, 1)"></circle><circle r="5" cx="1120.67" cy="48.2" fill="rgba(114, 47, 55, 1)"></circle><circle r="5" cx="1117.55" cy="243.41" fill="rgba(114, 47, 55, 1)"></circle><circle r="5" cx="1146" cy="377.51" fill="rgba(114, 47, 55, 1)"></circle><circle r="5" cx="1146.47" cy="499.53" fill="rgba(114, 47, 55, 1)"></circle><circle r="5" cx="1134.36" cy="688.78" fill="rgba(114, 47, 55, 1)"></circle><circle r="5" cx="1268.19" cy="-89.3" fill="rgba(114, 47, 55, 1)"></circle><circle r="5" cx="1301.29" cy="72.9" fill="rgba(114, 47, 55, 1)"></circle><circle r="5" cx="1296.94" cy="394.56" fill="rgba(114, 47, 55, 1)"></circle><circle r="5" cx="1240.12" cy="552.37" fill="rgba(114, 47, 55, 1)"></circle><circle r="5" cx="1299.99" cy="677.26" fill="rgba(114, 47, 55, 1)"></circle><circle r="5" cx="1416.44" cy="-84.07" fill="rgba(114, 47, 55, 1)"></circle><circle r="5" cx="1449.07" cy="48.83" fill="rgba(114, 47, 55, 1)"></circle><circle r="5" cx="1449.36" cy="191.32" fill="rgba(114, 47, 55, 1)"></circle><circle r="5" cx="1412.34" cy="362.94" fill="rgba(114, 47, 55, 1)"></circle><circle r="5" cx="1442.94" cy="548.94" fill="rgba(114, 47, 55, 1)"></circle><circle r="5" cx="1396.31" cy="692.62" fill="rgba(114, 47, 55, 1)"></circle><circle r="5" cx="1608.93" cy="-98.34" fill="rgba(114, 47, 55, 1)"></circle><circle r="5" cx="1607.25" cy="44.56" fill="rgba(114, 47, 55, 1)"></circle><circle r="5" cx="1591.59" cy="205.02" fill="rgba(114, 47, 55, 1)"></circle><circle r="5" cx="1542.9" cy="402.04" fill="rgba(114, 47, 55, 1)"></circle><circle r="5" cx="1606.13" cy="545.11" fill="rgba(114, 47, 55, 1)"></circle><circle r="5" cx="1580.24" cy="676.68" fill="rgba(114, 47, 55, 1)"></circle><path d="M-55.91 556.23L-55.91 556.23" stroke="hsl(352.79999999999995, 48.5%, 52.5%)" stroke-width="1.5"></path><path d="M-55.91 556.23L65.94 551.54" stroke="hsl(352.79999999999995, 48.5%, 52.5%)" stroke-width="1.5"></path><path d="M-55.91 556.23L83.11 686.35" stroke="hsl(352.79999999999995, 48.5%, 52.5%)" stroke-width="1.5"></path><path d="M-55.91 556.23L230.24 652.5" stroke="hsl(352.79999999999995, 48.5%, 52.5%)" stroke-width="1.5"></path><path d="M-55.91 556.23L246.06 505.32" stroke="hsl(352.79999999999995, 48.5%, 52.5%)" stroke-width="1.5"></path><path d="M-55.91 556.23L369.13 522.97" stroke="hsl(352.79999999999995, 48.5%, 52.5%)" stroke-width="1.5"></path><path d="M-55.91 556.23L362.19 691.95" stroke="hsl(352.79999999999995, 48.5%, 52.5%)" stroke-width="1.5"></path><path d="M973.46 540.13L973.46 540.13" stroke="hsl(352.79999999999995, 48.5%, 52.5%)" stroke-width="1.5"></path><path d="M973.46 540.13L986.01 663.93" stroke="hsl(352.79999999999995, 48.5%, 52.5%)" stroke-width="1.5"></path><path d="M973.46 540.13L836.23 512.82" stroke="hsl(352.79999999999995, 48.5%, 52.5%)" stroke-width="1.5"></path><path d="M973.46 540.13L1145.74 500.7" stroke="hsl(352.79999999999995, 48.5%, 52.5%)" stroke-width="1.5"></path><path d="M973.46 540.13L968.27 354.64" stroke="hsl(352.79999999999995, 48.5%, 52.5%)" stroke-width="1.5"></path><path d="M973.46 540.13L804.77 679.85" stroke="hsl(352.79999999999995, 48.5%, 52.5%)" stroke-width="1.5"></path><path d="M1262.32 495.35L1262.32 495.35" stroke="hsl(352.79999999999995, 48.5%, 52.5%)" stroke-width="1.5"></path><path d="M1262.32 495.35L1145.74 500.7" stroke="hsl(352.79999999999995, 48.5%, 52.5%)" stroke-width="1.5"></path><path d="M1262.32 495.35L1307.52 646.19" stroke="hsl(352.79999999999995, 48.5%, 52.5%)" stroke-width="1.5"></path><path d="M1262.32 495.35L1141.85 339.31" stroke="hsl(352.79999999999995, 48.5%, 52.5%)" stroke-width="1.5"></path><path d="M1262.32 495.35L1448.15 354.49" stroke="hsl(352.79999999999995, 48.5%, 52.5%)" stroke-width="1.5"></path><path d="M1262.32 495.35L1141.93 700.18" stroke="hsl(352.79999999999995, 48.5%, 52.5%)" stroke-width="1.5"></path><path d="M1443.36 -84.97L1443.36 -84.97" stroke="hsl(352.79999999999995, 48.5%, 52.5%)" stroke-width="1.5"></path><path d="M1443.36 -84.97L1437.87 37.88" stroke="hsl(352.79999999999995, 48.5%, 52.5%)" stroke-width="1.5"></path><path d="M1443.36 -84.97L1585.97 -52.75" stroke="hsl(352.79999999999995, 48.5%, 52.5%)" stroke-width="1.5"></path><path d="M65.94 551.54L65.94 551.54" stroke="hsl(352.79999999999995, 48.5%, 52.5%)" stroke-width="1.5"></path><path d="M65.94 551.54L83.11 686.35" stroke="hsl(352.79999999999995, 48.5%, 52.5%)" stroke-width="1.5"></path><path d="M65.94 551.54L246.06 505.32" stroke="hsl(352.79999999999995, 48.5%, 52.5%)" stroke-width="1.5"></path><path d="M65.94 551.54L230.24 652.5" stroke="hsl(352.79999999999995, 48.5%, 52.5%)" stroke-width="1.5"></path><path d="M65.94 551.54L369.13 522.97" stroke="hsl(352.79999999999995, 48.5%, 52.5%)" stroke-width="1.5"></path><path d="M65.94 551.54L362.19 691.95" stroke="hsl(352.79999999999995, 48.5%, 52.5%)" stroke-width="1.5"></path><path d="M83.11 686.35L83.11 686.35" stroke="hsl(352.79999999999995, 48.5%, 52.5%)" stroke-width="1.5"></path><path d="M83.11 686.35L230.24 652.5" stroke="hsl(352.79999999999995, 48.5%, 52.5%)" stroke-width="1.5"></path><path d="M83.11 686.35L246.06 505.32" stroke="hsl(352.79999999999995, 48.5%, 52.5%)" stroke-width="1.5"></path><path d="M83.11 686.35L362.19 691.95" stroke="hsl(352.79999999999995, 48.5%, 52.5%)" stroke-width="1.5"></path><path d="M83.11 686.35L369.13 522.97" stroke="hsl(352.79999999999995, 48.5%, 52.5%)" stroke-width="1.5"></path><path d="M246.06 505.32L246.06 505.32" stroke="hsl(352.79999999999995, 48.5%, 52.5%)" stroke-width="1.5"></path><path d="M246.06 505.32L369.13 522.97" stroke="hsl(352.79999999999995, 48.5%, 52.5%)" stroke-width="1.5"></path><path d="M246.06 505.32L230.24 652.5" stroke="hsl(352.79999999999995, 48.5%, 52.5%)" stroke-width="1.5"></path><path d="M230.24 652.5L230.24 652.5" stroke="hsl(352.79999999999995, 48.5%, 52.5%)" stroke-width="1.5"></path><path d="M230.24 652.5L362.19 691.95" stroke="hsl(352.79999999999995, 48.5%, 52.5%)" stroke-width="1.5"></path><path d="M369.13 522.97L369.13 522.97" stroke="hsl(352.79999999999995, 48.5%, 52.5%)" stroke-width="1.5"></path><path d="M369.13 522.97L362.19 691.95" stroke="hsl(352.79999999999995, 48.5%, 52.5%)" stroke-width="1.5"></path><path d="M369.13 522.97L538.31 496.58" stroke="hsl(352.79999999999995, 48.5%, 52.5%)" stroke-width="1.5"></path><path d="M369.13 522.97L230.24 652.5" stroke="hsl(352.79999999999995, 48.5%, 52.5%)" stroke-width="1.5"></path><path d="M362.19 691.95L362.19 691.95" stroke="hsl(352.79999999999995, 48.5%, 52.5%)" stroke-width="1.5"></path><path d="M362.19 691.95L527.11 671.38" stroke="hsl(352.79999999999995, 48.5%, 52.5%)" stroke-width="1.5"></path><path d="M362.19 691.95L246.06 505.32" stroke="hsl(352.79999999999995, 48.5%, 52.5%)" stroke-width="1.5"></path><path d="M362.19 691.95L538.31 496.58" stroke="hsl(352.79999999999995, 48.5%, 52.5%)" stroke-width="1.5"></path><path d="M537.03 410.84L537.03 410.84" stroke="hsl(352.79999999999995, 48.5%, 52.5%)" stroke-width="1.5"></path><path d="M537.03 410.84L538.31 496.58" stroke="hsl(352.79999999999995, 48.5%, 52.5%)" stroke-width="1.5"></path><path d="M537.03 410.84L654.3 396.8" stroke="hsl(352.79999999999995, 48.5%, 52.5%)" stroke-width="1.5"></path><path d="M537.03 410.84L644.85 553.05" stroke="hsl(352.79999999999995, 48.5%, 52.5%)" stroke-width="1.5"></path><path d="M537.03 410.84L369.13 522.97" stroke="hsl(352.79999999999995, 48.5%, 52.5%)" stroke-width="1.5"></path><path d="M537.03 410.84L527.11 671.38" stroke="hsl(352.79999999999995, 48.5%, 52.5%)" stroke-width="1.5"></path><path d="M538.31 496.58L538.31 496.58" stroke="hsl(352.79999999999995, 48.5%, 52.5%)" stroke-width="1.5"></path><path d="M538.31 496.58L644.85 553.05" stroke="hsl(352.79999999999995, 48.5%, 52.5%)" stroke-width="1.5"></path><path d="M538.31 496.58L654.3 396.8" stroke="hsl(352.79999999999995, 48.5%, 52.5%)" stroke-width="1.5"></path><path d="M538.31 496.58L527.11 671.38" stroke="hsl(352.79999999999995, 48.5%, 52.5%)" stroke-width="1.5"></path><path d="M527.11 671.38L527.11 671.38" stroke="hsl(352.79999999999995, 48.5%, 52.5%)" stroke-width="1.5"></path><path d="M527.11 671.38L644.85 553.05" stroke="hsl(352.79999999999995, 48.5%, 52.5%)" stroke-width="1.5"></path><path d="M527.11 671.38L369.13 522.97" stroke="hsl(352.79999999999995, 48.5%, 52.5%)" stroke-width="1.5"></path><path d="M527.11 671.38L804.77 679.85" stroke="hsl(352.79999999999995, 48.5%, 52.5%)" stroke-width="1.5"></path><path d="M654.3 396.8L654.3 396.8" stroke="hsl(352.79999999999995, 48.5%, 52.5%)" stroke-width="1.5"></path><path d="M654.3 396.8L801.53 388.38" stroke="hsl(352.79999999999995, 48.5%, 52.5%)" stroke-width="1.5"></path><path d="M654.3 396.8L644.85 553.05" stroke="hsl(352.79999999999995, 48.5%, 52.5%)" stroke-width="1.5"></path><path d="M644.85 553.05L644.85 553.05" stroke="hsl(352.79999999999995, 48.5%, 52.5%)" stroke-width="1.5"></path><path d="M801.53 388.38L801.53 388.38" stroke="hsl(352.79999999999995, 48.5%, 52.5%)" stroke-width="1.5"></path><path d="M801.53 388.38L836.23 512.82" stroke="hsl(352.79999999999995, 48.5%, 52.5%)" stroke-width="1.5"></path><path d="M801.53 388.38L968.27 354.64" stroke="hsl(352.79999999999995, 48.5%, 52.5%)" stroke-width="1.5"></path><path d="M801.53 388.38L644.85 553.05" stroke="hsl(352.79999999999995, 48.5%, 52.5%)" stroke-width="1.5"></path><path d="M801.53 388.38L973.46 540.13" stroke="hsl(352.79999999999995, 48.5%, 52.5%)" stroke-width="1.5"></path><path d="M801.53 388.38L537.03 410.84" stroke="hsl(352.79999999999995, 48.5%, 52.5%)" stroke-width="1.5"></path><path d="M836.23 512.82L836.23 512.82" stroke="hsl(352.79999999999995, 48.5%, 52.5%)" stroke-width="1.5"></path><path d="M804.77 679.85L804.77 679.85" stroke="hsl(352.79999999999995, 48.5%, 52.5%)" stroke-width="1.5"></path><path d="M804.77 679.85L836.23 512.82" stroke="hsl(352.79999999999995, 48.5%, 52.5%)" stroke-width="1.5"></path><path d="M804.77 679.85L986.01 663.93" stroke="hsl(352.79999999999995, 48.5%, 52.5%)" stroke-width="1.5"></path><path d="M968.27 354.64L968.27 354.64" stroke="hsl(352.79999999999995, 48.5%, 52.5%)" stroke-width="1.5"></path><path d="M968.27 354.64L1141.85 339.31" stroke="hsl(352.79999999999995, 48.5%, 52.5%)" stroke-width="1.5"></path><path d="M968.27 354.64L1106.81 211.79" stroke="hsl(352.79999999999995, 48.5%, 52.5%)" stroke-width="1.5"></path><path d="M968.27 354.64L836.23 512.82" stroke="hsl(352.79999999999995, 48.5%, 52.5%)" stroke-width="1.5"></path><path d="M968.27 354.64L1145.74 500.7" stroke="hsl(352.79999999999995, 48.5%, 52.5%)" stroke-width="1.5"></path><path d="M986.01 663.93L986.01 663.93" stroke="hsl(352.79999999999995, 48.5%, 52.5%)" stroke-width="1.5"></path><path d="M986.01 663.93L1141.93 700.18" stroke="hsl(352.79999999999995, 48.5%, 52.5%)" stroke-width="1.5"></path><path d="M986.01 663.93L836.23 512.82" stroke="hsl(352.79999999999995, 48.5%, 52.5%)" stroke-width="1.5"></path><path d="M986.01 663.93L1145.74 500.7" stroke="hsl(352.79999999999995, 48.5%, 52.5%)" stroke-width="1.5"></path><path d="M986.01 663.93L968.27 354.64" stroke="hsl(352.79999999999995, 48.5%, 52.5%)" stroke-width="1.5"></path><path d="M1106.81 211.79L1106.81 211.79" stroke="hsl(352.79999999999995, 48.5%, 52.5%)" stroke-width="1.5"></path><path d="M1106.81 211.79L1141.85 339.31" stroke="hsl(352.79999999999995, 48.5%, 52.5%)" stroke-width="1.5"></path><path d="M1106.81 211.79L1295.31 237.89" stroke="hsl(352.79999999999995, 48.5%, 52.5%)" stroke-width="1.5"></path><path d="M1106.81 211.79L1262.37 96.9" stroke="hsl(352.79999999999995, 48.5%, 52.5%)" stroke-width="1.5"></path><path d="M1106.81 211.79L1145.74 500.7" stroke="hsl(352.79999999999995, 48.5%, 52.5%)" stroke-width="1.5"></path><path d="M1106.81 211.79L1429.1 231.17" stroke="hsl(352.79999999999995, 48.5%, 52.5%)" stroke-width="1.5"></path><path d="M1141.85 339.31L1141.85 339.31" stroke="hsl(352.79999999999995, 48.5%, 52.5%)" stroke-width="1.5"></path><path d="M1141.85 339.31L1145.74 500.7" stroke="hsl(352.79999999999995, 48.5%, 52.5%)" stroke-width="1.5"></path><path d="M1145.74 500.7L1145.74 500.7" stroke="hsl(352.79999999999995, 48.5%, 52.5%)" stroke-width="1.5"></path><path d="M1145.74 500.7L1141.93 700.18" stroke="hsl(352.79999999999995, 48.5%, 52.5%)" stroke-width="1.5"></path><path d="M1145.74 500.7L1307.52 646.19" stroke="hsl(352.79999999999995, 48.5%, 52.5%)" stroke-width="1.5"></path><path d="M1141.93 700.18L1141.93 700.18" stroke="hsl(352.79999999999995, 48.5%, 52.5%)" stroke-width="1.5"></path><path d="M1141.93 700.18L1307.52 646.19" stroke="hsl(352.79999999999995, 48.5%, 52.5%)" stroke-width="1.5"></path><path d="M1141.93 700.18L973.46 540.13" stroke="hsl(352.79999999999995, 48.5%, 52.5%)" stroke-width="1.5"></path><path d="M1141.93 700.18L1412.89 703.55" stroke="hsl(352.79999999999995, 48.5%, 52.5%)" stroke-width="1.5"></path><path d="M1270.81 -102.12L1270.81 -102.12" stroke="hsl(352.79999999999995, 48.5%, 52.5%)" stroke-width="1.5"></path><path d="M1270.81 -102.12L1443.36 -84.97" stroke="hsl(352.79999999999995, 48.5%, 52.5%)" stroke-width="1.5"></path><path d="M1270.81 -102.12L1262.37 96.9" stroke="hsl(352.79999999999995, 48.5%, 52.5%)" stroke-width="1.5"></path><path d="M1270.81 -102.12L1437.87 37.88" stroke="hsl(352.79999999999995, 48.5%, 52.5%)" stroke-width="1.5"></path><path d="M1270.81 -102.12L1585.97 -52.75" stroke="hsl(352.79999999999995, 48.5%, 52.5%)" stroke-width="1.5"></path><path d="M1270.81 -102.12L1295.31 237.89" stroke="hsl(352.79999999999995, 48.5%, 52.5%)" stroke-width="1.5"></path><path d="M1270.81 -102.12L1106.81 211.79" stroke="hsl(352.79999999999995, 48.5%, 52.5%)" stroke-width="1.5"></path><path d="M1262.37 96.9L1262.37 96.9" stroke="hsl(352.79999999999995, 48.5%, 52.5%)" stroke-width="1.5"></path><path d="M1262.37 96.9L1295.31 237.89" stroke="hsl(352.79999999999995, 48.5%, 52.5%)" stroke-width="1.5"></path><path d="M1262.37 96.9L1437.87 37.88" stroke="hsl(352.79999999999995, 48.5%, 52.5%)" stroke-width="1.5"></path><path d="M1295.31 237.89L1295.31 237.89" stroke="hsl(352.79999999999995, 48.5%, 52.5%)" stroke-width="1.5"></path><path d="M1295.31 237.89L1429.1 231.17" stroke="hsl(352.79999999999995, 48.5%, 52.5%)" stroke-width="1.5"></path><path d="M1295.31 237.89L1141.85 339.31" stroke="hsl(352.79999999999995, 48.5%, 52.5%)" stroke-width="1.5"></path><path d="M1295.31 237.89L1448.15 354.49" stroke="hsl(352.79999999999995, 48.5%, 52.5%)" stroke-width="1.5"></path><path d="M1307.52 646.19L1307.52 646.19" stroke="hsl(352.79999999999995, 48.5%, 52.5%)" stroke-width="1.5"></path><path d="M1307.52 646.19L1412.89 703.55" stroke="hsl(352.79999999999995, 48.5%, 52.5%)" stroke-width="1.5"></path><path d="M1437.87 37.88L1437.87 37.88" stroke="hsl(352.79999999999995, 48.5%, 52.5%)" stroke-width="1.5"></path><path d="M1437.87 37.88L1609.34 37.6" stroke="hsl(352.79999999999995, 48.5%, 52.5%)" stroke-width="1.5"></path><path d="M1437.87 37.88L1585.97 -52.75" stroke="hsl(352.79999999999995, 48.5%, 52.5%)" stroke-width="1.5"></path><path d="M1437.87 37.88L1429.1 231.17" stroke="hsl(352.79999999999995, 48.5%, 52.5%)" stroke-width="1.5"></path><path d="M1429.1 231.17L1429.1 231.17" stroke="hsl(352.79999999999995, 48.5%, 52.5%)" stroke-width="1.5"></path><path d="M1429.1 231.17L1448.15 354.49" stroke="hsl(352.79999999999995, 48.5%, 52.5%)" stroke-width="1.5"></path><path d="M1429.1 231.17L1595.26 253.33" stroke="hsl(352.79999999999995, 48.5%, 52.5%)" stroke-width="1.5"></path><path d="M1429.1 231.17L1541.88 406.05" stroke="hsl(352.79999999999995, 48.5%, 52.5%)" stroke-width="1.5"></path><path d="M1448.15 354.49L1448.15 354.49" stroke="hsl(352.79999999999995, 48.5%, 52.5%)" stroke-width="1.5"></path><path d="M1448.15 354.49L1541.88 406.05" stroke="hsl(352.79999999999995, 48.5%, 52.5%)" stroke-width="1.5"></path><path d="M1448.15 354.49L1595.26 253.33" stroke="hsl(352.79999999999995, 48.5%, 52.5%)" stroke-width="1.5"></path><path d="M1448.15 354.49L1601.05 489.99" stroke="hsl(352.79999999999995, 48.5%, 52.5%)" stroke-width="1.5"></path><path d="M1412.89 703.55L1412.89 703.55" stroke="hsl(352.79999999999995, 48.5%, 52.5%)" stroke-width="1.5"></path><path d="M1412.89 703.55L1584.34 676.18" stroke="hsl(352.79999999999995, 48.5%, 52.5%)" stroke-width="1.5"></path><path d="M1412.89 703.55L1262.32 495.35" stroke="hsl(352.79999999999995, 48.5%, 52.5%)" stroke-width="1.5"></path><path d="M1585.97 -52.75L1585.97 -52.75" stroke="hsl(352.79999999999995, 48.5%, 52.5%)" stroke-width="1.5"></path><path d="M1585.97 -52.75L1609.34 37.6" stroke="hsl(352.79999999999995, 48.5%, 52.5%)" stroke-width="1.5"></path><path d="M1609.34 37.6L1609.34 37.6" stroke="hsl(352.79999999999995, 48.5%, 52.5%)" stroke-width="1.5"></path><path d="M1609.34 37.6L1443.36 -84.97" stroke="hsl(352.79999999999995, 48.5%, 52.5%)" stroke-width="1.5"></path><path d="M1595.26 253.33L1595.26 253.33" stroke="hsl(352.79999999999995, 48.5%, 52.5%)" stroke-width="1.5"></path><path d="M1595.26 253.33L1541.88 406.05" stroke="hsl(352.79999999999995, 48.5%, 52.5%)" stroke-width="1.5"></path><path d="M1595.26 253.33L1609.34 37.6" stroke="hsl(352.79999999999995, 48.5%, 52.5%)" stroke-width="1.5"></path><path d="M1595.26 253.33L1601.05 489.99" stroke="hsl(352.79999999999995, 48.5%, 52.5%)" stroke-width="1.5"></path><path d="M1541.88 406.05L1541.88 406.05" stroke="hsl(352.79999999999995, 48.5%, 52.5%)" stroke-width="1.5"></path><path d="M1541.88 406.05L1601.05 489.99" stroke="hsl(352.79999999999995, 48.5%, 52.5%)" stroke-width="1.5"></path><path d="M1541.88 406.05L1584.34 676.18" stroke="hsl(352.79999999999995, 48.5%, 52.5%)" stroke-width="1.5"></path><path d="M1601.05 489.99L1601.05 489.99" stroke="hsl(352.79999999999995, 48.5%, 52.5%)" stroke-width="1.5"></path><path d="M1601.05 489.99L1584.34 676.18" stroke="hsl(352.79999999999995, 48.5%, 52.5%)" stroke-width="1.5"></path><path d="M1601.05 489.99L1412.89 703.55" stroke="hsl(352.79999999999995, 48.5%, 52.5%)" stroke-width="1.5"></path><path d="M1601.05 489.99L1429.1 231.17" stroke="hsl(352.79999999999995, 48.5%, 52.5%)" stroke-width="1.5"></path><path d="M1584.34 676.18L1584.34 676.18" stroke="hsl(352.79999999999995, 48.5%, 52.5%)" stroke-width="1.5"></path><circle r="25" cx="-55.91" cy="556.23" fill="url(#SvgjsRadialGradient1011)"></circle><circle r="25" cx="973.46" cy="540.13" fill="url(#SvgjsRadialGradient1011)"></circle><circle r="25" cx="1262.32" cy="495.35" fill="url(#SvgjsRadialGradient1011)"></circle><circle r="25" cx="1443.36" cy="-84.97" fill="url(#SvgjsRadialGradient1011)"></circle><circle r="5" cx="65.94" cy="551.54" fill="#cc9aa0"></circle><circle r="5" cx="83.11" cy="686.35" fill="#cc9aa0"></circle><circle r="5" cx="246.06" cy="505.32" fill="#cc9aa0"></circle><circle r="5" cx="230.24" cy="652.5" fill="#cc9aa0"></circle><circle r="5" cx="369.13" cy="522.97" fill="#cc9aa0"></circle><circle r="5" cx="362.19" cy="691.95" fill="#cc9aa0"></circle><circle r="5" cx="537.03" cy="410.84" fill="#cc9aa0"></circle><circle r="5" cx="538.31" cy="496.58" fill="#cc9aa0"></circle><circle r="5" cx="527.11" cy="671.38" fill="#cc9aa0"></circle><circle r="5" cx="654.3" cy="396.8" fill="#cc9aa0"></circle><circle r="5" cx="644.85" cy="553.05" fill="#cc9aa0"></circle><circle r="5" cx="801.53" cy="388.38" fill="#cc9aa0"></circle><circle r="5" cx="836.23" cy="512.82" fill="#cc9aa0"></circle><circle r="5" cx="804.77" cy="679.85" fill="#cc9aa0"></circle><circle r="5" cx="968.27" cy="354.64" fill="#cc9aa0"></circle><circle r="5" cx="986.01" cy="663.93" fill="#cc9aa0"></circle><circle r="5" cx="1106.81" cy="211.79" fill="#cc9aa0"></circle><circle r="5" cx="1141.85" cy="339.31" fill="#cc9aa0"></circle><circle r="5" cx="1145.74" cy="500.7" fill="#cc9aa0"></circle><circle r="5" cx="1141.93" cy="700.18" fill="#cc9aa0"></circle><circle r="5" cx="1270.81" cy="-102.12" fill="#cc9aa0"></circle><circle r="5" cx="1262.37" cy="96.9" fill="#cc9aa0"></circle><circle r="5" cx="1295.31" cy="237.89" fill="#cc9aa0"></circle><circle r="5" cx="1307.52" cy="646.19" fill="#cc9aa0"></circle><circle r="5" cx="1437.87" cy="37.88" fill="#cc9aa0"></circle><circle r="5" cx="1429.1" cy="231.17" fill="#cc9aa0"></circle><circle r="5" cx="1448.15" cy="354.49" fill="#cc9aa0"></circle><circle r="5" cx="1412.89" cy="703.55" fill="#cc9aa0"></circle><circle r="5" cx="1585.97" cy="-52.75" fill="#cc9aa0"></circle><circle r="5" cx="1609.34" cy="37.6" fill="#cc9aa0"></circle><circle r="5" cx="1595.26" cy="253.33" fill="#cc9aa0"></circle><circle r="5" cx="1541.88" cy="406.05" fill="#cc9aa0"></circle><circle r="5" cx="1601.05" cy="489.99" fill="#cc9aa0"></circle><circle r="5" cx="1584.34" cy="676.18" fill="#cc9aa0"></circle></g><defs><mask id="SvgjsMask1010"><rect width="1440" height="560" fill="#ffffff"></rect></mask><radialGradient id="SvgjsRadialGradient1011"><stop stop-color="#ffffff" offset="0.1"></stop><stop stop-color="rgba(153, 53, 65, 1)" offset="0.2"></stop><stop stop-color="rgba(153, 53, 65, 0)" offset="1"></stop></radialGradient></defs></svg>